HIERARCHY
ROOT Hips
{
  OFFSET 5.80788e-005 67.184 3.4734
  CHANNELS 6 Xposition Yposition Zposition Zrotation Xrotation Yrotation
  JOINT Chest
  {
    OFFSET 0 8.7983 -4.7612
    CHANNELS 3 Zrotation Xrotation Yrotation
    JOINT Chest2
    {
      OFFSET 0 8.0291 0.4195
      CHANNELS 3 Zrotation Xrotation Yrotation
      JOINT Chest3
      {
        OFFSET 0 9.9351 -2.2114
        CHANNELS 3 Zrotation Xrotation Yrotation
        JOINT Neck
        {
          OFFSET 0 22.3885 -0.4656
          CHANNELS 3 Zrotation Xrotation Yrotation
          JOINT Head
          {
            OFFSET -0.0001 12.643 3.4389
            CHANNELS 3 Zrotation Xrotation Yrotation
            End Site
            {
              OFFSET 0.0001 17.6655 0.5274
            }
          }
        }
        JOINT LeftCollar
        {
          OFFSET 2.2603 21.606 7.4023
          CHANNELS 3 Zrotation Xrotation Yrotation
          JOINT LeftShoulder
          {
            OFFSET 13.5163 -1.1332 -5.0146
            CHANNELS 3 Zrotation Xrotation Yrotation
            JOINT LeftElbow
            {
              OFFSET -0.0995 -28.05 -0.2431
              CHANNELS 3 Zrotation Xrotation Yrotation
              JOINT LeftWrist
              {
                OFFSET 0.0679 -23.3996 -0.1402
                CHANNELS 3 Zrotation Xrotation Yrotation
                JOINT LeftFinger1
                {
                  OFFSET 0.7932 -9.069 2.5189
                  CHANNELS 3 Zrotation Xrotation Yrotation
                  JOINT LeftFinger11
                  {
                    OFFSET -0.8272 -3.3923 0.5977
                    CHANNELS 3 Zrotation Xrotation Yrotation
                    JOINT LeftFinger12
                    {
                      OFFSET -0.5649 -2.3158 0.4082
                      CHANNELS 3 Zrotation Xrotation Yrotation
                      End Site
                      {
                        OFFSET -0.4919 -1.6479 0.2673
                      }
                    }
                  }
                }
                JOINT LeftFinger2
                {
                  OFFSET 0.9159 -9.2044 0.2193
                  CHANNELS 3 Zrotation Xrotation Yrotation
                  JOINT LeftFinger21
                  {
                    OFFSET 0.0117 -4.1944 -0.0248
                    CHANNELS 3 Zrotation Xrotation Yrotation
                    JOINT LeftFinger22
                    {
                      OFFSET 0.0071 -2.3249 -0.0142
                      CHANNELS 3 Zrotation Xrotation Yrotation
                      End Site
                      {
                        OFFSET -0.1475 -2.0882 0.0028
                      }
                    }
                  }
                }
                JOINT LeftFinger3
                {
                  OFFSET 0.6113 -8.7231 -2.0637
                  CHANNELS 3 Zrotation Xrotation Yrotation
                  JOINT LeftFinger31
                  {
                    OFFSET -0.1927 -3.8059 -0.2383
                    CHANNELS 3 Zrotation Xrotation Yrotation
                    JOINT LeftFinger32
                    {
                      OFFSET -0.1091 -2.1688 -0.1362
                      CHANNELS 3 Zrotation Xrotation Yrotation
                      End Site
                      {
                        OFFSET -0.2358 -1.9176 -0.0906
                      }
                    }
                  }
                }
                JOINT LeftFinger4
                {
                  OFFSET -0.6151 -8.0947 -3.5641
                  CHANNELS 3 Zrotation Xrotation Yrotation
                  JOINT LeftFinger41
                  {
                    OFFSET -0.4882 -2.341 -0.6462
                    CHANNELS 3 Zrotation Xrotation Yrotation
                    JOINT LeftFinger42
                    {
                      OFFSET -0.3575 -1.7167 -0.4742
                      CHANNELS 3 Zrotation Xrotation Yrotation
                      End Site
                      {
                        OFFSET -0.4187 -1.5237 -0.3496
                      }
                    }
                  }
                }
                JOINT LeftFinger0
                {
                  OFFSET -1.42 -1.8761 1.4223
                  CHANNELS 3 Zrotation Xrotation Yrotation
                  JOINT LeftFinger01
                  {
                    OFFSET -1.1471 -3.4929 2.6334
                    CHANNELS 3 Zrotation Xrotation Yrotation
                    JOINT LeftFinger02
                    {
                      OFFSET -0.823 -2.3 1.6571
                      CHANNELS 3 Zrotation Xrotation Yrotation
                      End Site
                      {
                        OFFSET -0.5822 -1.6914 1.1582
                      }
                    }
                  }
                }
              }
            }
          }
        }
        JOINT RightCollar
        {
          OFFSET -2.2603 21.606 7.4023
          CHANNELS 3 Zrotation Xrotation Yrotation
          JOINT RightShoulder
          {
            OFFSET -13.5187 -1.1334 -5.0155
            CHANNELS 3 Zrotation Xrotation Yrotation
            JOINT RightElbow
            {
              OFFSET 0.0994 -28.0499 -0.2431
              CHANNELS 3 Zrotation Xrotation Yrotation
              JOINT RightWrist
              {
                OFFSET -0.0679 -23.3996 -0.1402
                CHANNELS 3 Zrotation Xrotation Yrotation
                JOINT RightFinger1
                {
                  OFFSET -0.7932 -9.0691 2.5189
                  CHANNELS 3 Zrotation Xrotation Yrotation
                  JOINT RightFinger11
                  {
                    OFFSET 0.8272 -3.3923 0.5977
                    CHANNELS 3 Zrotation Xrotation Yrotation
                    JOINT RightFinger12
                    {
                      OFFSET 0.565 -2.3158 0.4082
                      CHANNELS 3 Zrotation Xrotation Yrotation
                      End Site
                      {
                        OFFSET 0.4919 -1.6479 0.2673
                      }
                    }
                  }
                }
                JOINT RightFinger2
                {
                  OFFSET -0.916 -9.2044 0.2193
                  CHANNELS 3 Zrotation Xrotation Yrotation
                  JOINT RightFinger21
                  {
                    OFFSET -0.0117 -4.1944 -0.0248
                    CHANNELS 3 Zrotation Xrotation Yrotation
                    JOINT RightFinger22
                    {
                      OFFSET -0.0071 -2.3249 -0.0142
                      CHANNELS 3 Zrotation Xrotation Yrotation
                      End Site
                      {
                        OFFSET 0.1475 -2.0882 0.0028
                      }
                    }
                  }
                }
                JOINT RightFinger3
                {
                  OFFSET -0.6113 -8.7231 -2.0637
                  CHANNELS 3 Zrotation Xrotation Yrotation
                  JOINT RightFinger31
                  {
                    OFFSET 0.1927 -3.8059 -0.2383
                    CHANNELS 3 Zrotation Xrotation Yrotation
                    JOINT RightFinger32
                    {
                      OFFSET 0.1091 -2.1688 -0.1362
                      CHANNELS 3 Zrotation Xrotation Yrotation
                      End Site
                      {
                        OFFSET 0.2358 -1.9176 -0.0906
                      }
                    }
                  }
                }
                JOINT RightFinger4
                {
                  OFFSET 0.6151 -8.0947 -3.564
                  CHANNELS 3 Zrotation Xrotation Yrotation
                  JOINT RightFinger41
                  {
                    OFFSET 0.4882 -2.341 -0.6462
                    CHANNELS 3 Zrotation Xrotation Yrotation
                    JOINT RightFinger42
                    {
                      OFFSET 0.3574 -1.7166 -0.4742
                      CHANNELS 3 Zrotation Xrotation Yrotation
                      End Site
                      {
                        OFFSET 0.4187 -1.5237 -0.3496
                      }
                    }
                  }
                }
                JOINT RightFinger0
                {
                  OFFSET 1.4199 -1.8761 1.4221
                  CHANNELS 3 Zrotation Xrotation Yrotation
                  JOINT RightFinger01
                  {
                    OFFSET 1.1472 -3.4929 2.6336
                    CHANNELS 3 Zrotation Xrotation Yrotation
                    JOINT RightFinger02
                    {
                      OFFSET 0.8229 -2.3 1.6571
                      CHANNELS 3 Zrotation Xrotation Yrotation
                      End Site
                      {
                        OFFSET 0.5822 -1.6914 1.1582
                      }
                    }
                  }
                }
              }
            }
          }
        }
      }
    }
  }
  JOINT RightHip
  {
    OFFSET -9.412 3.9771 -0.7758
    CHANNELS 3 Zrotation Xrotation Yrotation
    JOINT RightKnee
    {
      OFFSET -0.7531 -40.938 0
      CHANNELS 3 Zrotation Xrotation Yrotation
      JOINT RightAnkle
      {
        OFFSET 0 -40.1986 0
        CHANNELS 3 Zrotation Xrotation Yrotation
        JOINT RightToe
        {
          OFFSET 0 -4.4182 9.239
          CHANNELS 3 Zrotation Xrotation Yrotation
          End Site
          {
            OFFSET 0 0 6.1981
          }
        }
      }
    }
  }
  JOINT LeftHip
  {
    OFFSET 9.4119 3.9773 -0.7758
    CHANNELS 3 Zrotation Xrotation Yrotation
    JOINT LeftKnee
    {
      OFFSET 0.7532 -40.9383 0
      CHANNELS 3 Zrotation Xrotation Yrotation
      JOINT LeftAnkle
      {
        OFFSET 0 -40.1986 0
        CHANNELS 3 Zrotation Xrotation Yrotation
        JOINT LeftToe
        {
          OFFSET 0 -4.4182 9.239
          CHANNELS 3 Zrotation Xrotation Yrotation
          End Site
          {
            OFFSET 0 0 6.1981
          }
        }
      }
    }
  }
}
MOTION
Frames:	6
Frame Time:	0.0333333
5.80788e-005 67.184 3.4734 0 0 -0 0 0 -0 0 0 -0 0 0 -0 0 0 -0 0 0 -0 0 0 -12.5014 88.1196 14.2451 10.6914 -0.00160068 -0.00239207 0.000740045 -8.4365e-005 7.00714e-005 -9.52055e-007 9.93923e-017 -1.98785e-016 -1.59028e-015 9.93923e-017 -5.96354e-016 -1.59028e-015 -9.93923e-017 -5.96354e-016 -1.59028e-015 9.93923e-017 -1.98785e-016 -1.59028e-015 -0.0128176 0.00232552 8.52707e-005 9.93923e-017 5.96354e-016 -0 9.93923e-017 -1.98785e-016 -1.59028e-015 -0.0160551 0.00299681 0.000857156 -2.48481e-016 0 3.18055e-015 9.93923e-017 -1.98785e-016 -1.59028e-015 -0.0125865 0.0031206 0.00282719 0 1.98785e-016 -0 9.93923e-017 -1.98785e-016 -1.59028e-015 9.93923e-017 -5.96354e-016 -1.59028e-015 -9.93923e-017 -5.96354e-016 -1.59028e-015 -0.865644 0.16582 7.03859 -88.0329 10.2057 -10.5567 0.0015593 -0.00248883 -0.000788628 7.87605e-005 4.10553e-005 1.24965e-005 -3.97569e-016 -7.95139e-016 3.18055e-015 -1.98785e-016 -3.97569e-016 3.18055e-015 -1.98785e-016 0 3.18055e-015 -3.97569e-016 -7.95139e-016 3.18055e-015 0.0129473 0.00231697 -8.70038e-005 9.93923e-017 -7.95139e-016 1.59028e-015 -3.97569e-016 -7.95139e-016 3.18055e-015 0.0163314 0.00303369 -0.000872333 3.97569e-016 7.95139e-016 -3.18055e-015 -3.97569e-016 -7.95139e-016 3.18055e-015 0.0145763 0.00367772 -0.00326275 9.93923e-017 -3.97569e-016 -0 -3.97569e-016 -7.95139e-016 3.18055e-015 -1.98785e-016 -3.97569e-016 3.18055e-015 -1.98785e-016 0 3.18055e-015 3.42485 1.36937 -0.0640303 0.000136572 0.69354 0.00145564 -3.42573 -2.06297 -0.0607933 -3.19502e-024 0 -1.48106e-024 -3.42498 1.36123 0.0639712 -6.769e-005 0.712612 -0.0012277 3.42582 -2.07388 0.0612819 2.55305e-023 0 -2.31416e-026 
0.652252 19.595 6.44177 3.98822e-008 30.9991 -2.78731e-008 0.175953 0.218483 -0.0631666 0.352158 0.436816 -0.127008 0.352157 0.436817 -0.127008 5.31689e-007 1.72428e-009 -4.44222e-008 9.04056e-008 5.51849e-010 5.67023e-008 -29.8275 -47.323 -34.0253 70.1282 37.6771 18.2483 -54.9154 -6.92562 14.8611 -2.31136 -7.62949 -2.86934 -6.36111e-015 6.36111e-015 -3.18055e-015 -1.76556e-031 3.18055e-015 3.18055e-015 -1.05934e-030 9.54166e-015 6.36111e-015 -6.36111e-015 6.36111e-015 -3.18055e-015 -0.0128557 0.00233062 8.64465e-005 -3.18055e-015 -3.18055e-015 -9.54166e-015 -6.36111e-015 6.36111e-015 -3.18055e-015 -0.01603 0.00298681 0.000864006 -0 -3.18055e-015 -0 -6.36111e-015 6.36111e-015 -3.18055e-015 -0.0125562 0.0031113 0.00282303 0 0 -0 -6.36111e-015 6.36111e-015 -3.18055e-015 -1.76556e-031 3.18055e-015 3.18055e-015 -1.05934e-030 9.54166e-015 6.36111e-015 29.0589 -47.6365 28.2394 -70.6274 33.9079 -16.0685 54.8634 -6.13789 -13.961 2.39192 -7.40202 3.14189 -3.18055e-015 -6.36111e-015 -3.18055e-015 1.45789e-006 8.25975e-006 9.07968e-006 -1.45789e-006 -8.25975e-006 -9.07968e-006 -3.18055e-015 -6.36111e-015 -3.18055e-015 0.0129257 0.0023137 -8.60937e-005 -3.18055e-015 9.54166e-015 3.18055e-015 -3.18055e-015 -6.36111e-015 -3.18055e-015 0.0163446 0.0030468 -0.000875659 -3.18055e-015 0 -3.18055e-015 -3.18055e-015 -6.36111e-015 -3.18055e-015 0.0145811 0.00368175 -0.00326064 -0 0 3.18055e-015 -3.18055e-015 -6.36111e-015 -3.18055e-015 1.45789e-006 8.25975e-006 9.07968e-006 -1.45789e-006 -8.25975e-006 -9.07968e-006 -134.677 -40.5787 -150.522 -140.59 65.9033 143.109 -1.87264 -14.2735 -12.0312 7.35443e-007 -6.30607e-007 2.54815e-006 134.673 -40.5982 150.491 140.647 65.9366 -143.184 1.87626 -14.2769 12.0195 4.1626e-006 -2.93396e-006 1.2314e-005 
0.652255 19.2231 6.77092 8.70328e-008 30.0575 -6.36735e-008 0.176506 -0.0698182 -0.0604669 0.352928 -0.139838 -0.120715 0.352938 -0.139823 -0.120719 0.00033782 0.376736 -0.000115591 -3.09918e-007 0.294143 -6.97129e-008 -29.9493 -47.052 -33.595 70.1282 37.6771 18.2483 -54.442 -6.95121 14.9391 -1.19879 -6.19331 -3.30562 -6.36111e-015 6.36111e-015 3.18055e-015 3.18055e-015 3.18055e-015 -3.18055e-015 -3.18055e-015 3.18055e-015 -3.18055e-015 -6.36111e-015 6.36111e-015 3.18055e-015 -0.0127396 0.00231104 8.72483e-005 -3.18055e-015 -3.18055e-015 -3.18055e-015 -6.36111e-015 6.36111e-015 3.18055e-015 -0.0160878 0.00300431 0.000866903 -6.36111e-015 1.59028e-014 9.54166e-015 -6.36111e-015 6.36111e-015 3.18055e-015 -0.0125968 0.00312433 0.00283343 3.18055e-015 -3.18055e-015 3.18055e-015 -6.36111e-015 6.36111e-015 3.18055e-015 3.18055e-015 3.18055e-015 -3.18055e-015 -3.18055e-015 3.18055e-015 -3.18055e-015 28.934 -47.3657 27.6513 -70.6274 33.9078 -16.0685 54.4944 -6.14891 -14.0301 1.23255 -6.03422 3.55375 1.13891e-006 -1.87775e-006 1.93911e-006 1.52974e-006 -2.16478e-006 -6.6266e-007 2.35377e-006 1.02223e-006 -3.83644e-006 1.13891e-006 -1.87775e-006 1.93911e-006 0.0129824 0.00231285 -9.03668e-005 7.68457e-006 -1.53253e-006 -1.30574e-005 1.13891e-006 -1.87775e-006 1.93911e-006 0.0163964 0.00304463 -0.000876315 7.64833e-007 7.22048e-007 -3.31287e-007 1.13891e-006 -1.87775e-006 1.93911e-006 0.0145653 0.00365893 -0.0032719 7.64843e-007 2.14069e-006 -3.31271e-007 1.13891e-006 -1.87775e-006 1.93911e-006 1.52974e-006 -2.16478e-006 -6.6266e-007 2.35377e-006 1.02223e-006 -3.83644e-006 -134.126 -40.5557 -149.724 -141.434 65.3813 143.849 -2.00317 -14.437 -11.5721 -8.44134e-007 -9.90769e-007 5.98058e-008 134.121 -40.5751 149.693 141.491 65.415 -143.924 2.0064 -14.4397 11.5598 1.09968e-007 -2.28653e-007 -2.60938e-006 
0.652254 18.8534 7.10032 1.62815e-007 29.1148 -5.34158e-008 0.177148 -0.358297 -0.0577889 0.353949 -0.716821 -0.114474 0.353944 -0.716815 -0.114473 0.000167756 0.753694 -5.4909e-005 -3.05598e-007 0.588419 1.9848e-008 -30.0738 -46.7818 -33.1656 70.1282 37.6771 18.2483 -53.9683 -6.97622 15.0174 -0.0728446 -4.7594 -3.77088 -3.18055e-015 6.36111e-015 -3.18055e-015 -4.76485e-006 7.81856e-006 -7.34548e-006 4.76486e-006 -7.81856e-006 7.34548e-006 -3.18055e-015 6.36111e-015 -3.18055e-015 -0.012797 0.00232303 8.86856e-005 -7.07339e-006 5.23182e-006 -9.15782e-006 -3.18055e-015 6.36111e-015 -3.18055e-015 -0.0161014 0.00300816 0.000857963 -3.18055e-015 0 -6.36111e-015 -3.18055e-015 6.36111e-015 -3.18055e-015 -0.0125952 0.00312513 0.0028298 -6.36111e-015 9.54166e-015 -0 -3.18055e-015 6.36111e-015 -3.18055e-015 -4.76485e-006 7.81856e-006 -7.34548e-006 4.76486e-006 -7.81856e-006 7.34548e-006 28.8134 -47.094 27.0672 -70.6274 33.9078 -16.0685 54.1253 -6.15953 -14.0993 0.060762 -4.66912 3.99434 -1.14759e-006 1.8756e-006 -1.9399e-006 4.46412e-007 -2.59386e-006 -5.69296e-007 -7.01175e-007 2.90239e-006 -2.50919e-006 -1.14759e-006 1.8756e-006 -1.9399e-006 0.0130117 0.00232362 -9.26761e-005 -1.05934e-030 -9.54166e-015 -6.36111e-015 -1.14759e-006 1.8756e-006 -1.9399e-006 0.0162992 0.00301842 -0.000876364 -7.65086e-007 1.0835e-006 3.31733e-007 -1.14759e-006 1.8756e-006 -1.9399e-006 0.0146083 0.00368083 -0.00328029 0 0 -3.18055e-015 -1.14759e-006 1.8756e-006 -1.9399e-006 4.46412e-007 -2.59386e-006 -5.69296e-007 -7.01175e-007 2.90239e-006 -2.50919e-006 -133.575 -40.5266 -148.927 -142.246 64.8545 144.555 -2.13281 -14.6013 -11.1132 -2.98177e-015 2.78622e-007 3.18055e-015 133.571 -40.546 148.895 142.303 64.8888 -144.63 2.13571 -14.6034 11.1002 -2.53188e-006 4.57915e-007 1.80781e-007 
0.652253 18.4858 7.42991 7.07614e-008 28.1712 2.05667e-008 0.177766 -0.647008 -0.0550927 0.354945 -1.29418 -0.108189 0.354942 -1.29417 -0.108188 0.000113594 1.13105 -3.5615e-005 5.07942e-008 0.882839 3.40811e-007 -30.2005 -46.5119 -32.7374 70.1282 37.6771 18.2483 -53.4945 -7.00053 15.0959 1.06724 -3.3293 -4.26543 -6.36111e-015 0 3.18055e-015 7.52106e-007 1.04251e-006 -3.61692e-007 6.36111e-015 6.36111e-015 -6.36111e-015 -6.36111e-015 0 3.18055e-015 -0.0128573 0.00232524 8.81025e-005 0 6.36111e-015 -0 -6.36111e-015 0 3.18055e-015 -0.0160342 0.00299099 0.000844976 3.18055e-015 -3.18055e-015 -3.18055e-015 -6.36111e-015 0 3.18055e-015 -0.0125681 0.00311316 0.00282256 3.18055e-015 9.54166e-015 -0 -6.36111e-015 0 3.18055e-015 7.52106e-007 1.04251e-006 -3.61692e-007 6.36111e-015 6.36111e-015 -6.36111e-015 28.6976 -46.8212 26.4866 -70.6274 33.9079 -16.0685 53.7561 -6.16971 -14.1685 -1.1241 -3.30814 4.46386 -7.32141e-006 5.69042e-006 1.14796e-005 1.05934e-030 -6.36111e-015 9.54166e-015 -7.65461e-007 1.08531e-006 3.31909e-007 -7.32141e-006 5.69042e-006 1.14796e-005 0.0129045 0.00230281 -9.63263e-005 3.89608e-006 -4.021e-007 -4.49831e-006 -7.32141e-006 5.69042e-006 1.14796e-005 0.0163565 0.0030345 -0.000879796 -7.65427e-007 1.08509e-006 3.31866e-007 -7.32141e-006 5.69042e-006 1.14796e-005 0.0145624 0.00367196 -0.00326361 6.36111e-015 -3.18055e-015 3.18055e-015 -7.32141e-006 5.69042e-006 1.14796e-005 1.05934e-030 -6.36111e-015 9.54166e-015 -7.65461e-007 1.08531e-006 3.31909e-007 -133.025 -40.4914 -148.131 -143.027 64.3234 145.231 -2.26164 -14.7666 -10.6546 2.5842e-015 2.77243e-007 6.36111e-015 133.021 -40.5106 148.099 143.084 64.358 -145.305 2.26418 -14.7681 10.6409 -2.53135e-006 7.35166e-007 1.82286e-007 
0.652256 18.1204 7.75963 8.11041e-008 27.2269 -1.5046e-008 0.178398 -0.93594 -0.052391 0.356008 -1.87207 -0.101886 0.356009 -1.87207 -0.101887 -2.96135e-005 1.50933 9.0976e-006 -1.29906e-008 1.17737 -4.20798e-008 -30.3293 -46.242 -32.3097 70.1282 37.6771 18.2483 -53.0206 -7.02422 15.1747 2.22234 -1.90454 -4.78963 5.29669e-031 -3.18055e-015 9.54166e-015 -3.18055e-015 0 3.18055e-015 -0 -9.54166e-015 -0 5.29669e-031 -3.18055e-015 9.54166e-015 -0.0128541 0.00232983 9.396e-005 -3.18055e-015 3.18055e-015 -0 5.29669e-031 -3.18055e-015 9.54166e-015 -0.016093 0.00299962 0.000865278 3.53113e-031 -6.36111e-015 3.18055e-015 5.29669e-031 -3.18055e-015 9.54166e-015 -0.0126307 0.00313048 0.0028406 1.76556e-031 3.18055e-015 -3.18055e-015 5.29669e-031 -3.18055e-015 9.54166e-015 -3.18055e-015 0 3.18055e-015 -0 -9.54166e-015 -0 28.5858 -46.547 25.9091 -70.6273 33.9078 -16.0685 53.3869 -6.17941 -14.2379 -2.32272 -1.9527 4.96269 -3.95574e-006 -8.83636e-006 -5.27282e-006 3.18055e-015 -3.18055e-015 6.36111e-015 -3.18055e-015 -1.27222e-014 1.90833e-014 -3.95574e-006 -8.83636e-006 -5.27282e-006 0.0129401 0.00231689 -8.40133e-005 -6.36111e-015 -9.54166e-015 -0 -3.95574e-006 -8.83636e-006 -5.27282e-006 0.0163453 0.00303682 -0.000877365 -0 0 6.36111e-015 -3.95574e-006 -8.83636e-006 -5.27282e-006 0.0144872 0.00364934 -0.0032485 -3.18055e-015 -3.18055e-015 -3.18055e-015 -3.95574e-006 -8.83636e-006 -5.27282e-006 3.18055e-015 -3.18055e-015 6.36111e-015 -3.18055e-015 -1.27222e-014 1.90833e-014 -132.476 -40.4501 -147.336 -143.78 63.788 145.876 -2.38961 -14.9329 -10.1963 1.19271e-015 -1.59028e-015 -3.18055e-015 132.472 -40.4692 147.305 143.836 63.8231 -145.951 2.39178 -14.9337 10.182 -7.3047e-007 4.81364e-007 -2.54971e-006 
